<svg width="395" height="106" viewBox="0 0 395 106" fill="none" xmlns="http://www.w3.org/2000/svg">
<g clip-path="url(#clip0_356_33387)">
<rect x="150.166" y="1.36877" width="95" height="95" rx="47.5" fill="#2563EB"/>
<path d="M211.666 28.8688H183.666C183.136 28.8688 182.627 28.6581 182.252 28.283C181.877 27.9079 181.666 27.3992 181.666 26.8688C181.666 26.3383 181.877 25.8296 182.252 25.4546C182.627 25.0795 183.136 24.8688 183.666 24.8688H211.666C212.196 24.8688 212.705 25.0795 213.08 25.4546C213.455 25.8296 213.666 26.3383 213.666 26.8688C213.666 27.3992 213.455 27.9079 213.08 28.283C212.705 28.6581 212.196 28.8688 211.666 28.8688Z" fill="white"/>
<path d="M215.666 34.8688H179.666C179.136 34.8688 178.627 34.6581 178.252 34.283C177.877 33.9079 177.666 33.3992 177.666 32.8688C177.666 32.3383 177.877 31.8296 178.252 31.4546C178.627 31.0795 179.136 30.8688 179.666 30.8688H215.666C216.196 30.8688 216.705 31.0795 217.08 31.4546C217.455 31.8296 217.666 32.3383 217.666 32.8688C217.666 33.3992 217.455 33.9079 217.08 34.283C216.705 34.6581 216.196 34.8688 215.666 34.8688Z" fill="white"/>
<path d="M218.057 72.8688H177.275C175.788 72.8671 174.362 72.2757 173.311 71.2242C172.259 70.1727 171.668 68.7471 171.666 67.26V42.4775C171.668 40.9905 172.259 39.5649 173.311 38.5134C174.362 37.4619 175.788 36.8704 177.275 36.8688H218.057C219.544 36.8704 220.97 37.4619 222.021 38.5134C223.073 39.5649 223.664 40.9905 223.666 42.4775V67.26C223.664 68.7471 223.073 70.1727 222.021 71.2242C220.97 72.2757 219.544 72.8671 218.057 72.8688V72.8688Z" fill="white"/>
<rect x="150.166" y="1.36877" width="95" height="95" rx="47.5" stroke="#2563EB"/>
</g>
<rect x="151.666" y="2.86877" width="102" height="102" rx="51" stroke="#2563EB" stroke-width="2" stroke-dasharray="8 4"/>
<defs>
<clipPath id="clip0_356_33387">
<rect width="394.667" height="160" fill="white" transform="translate(0.333008 0.868774)"/>
</clipPath>
</defs>
</svg>
