<svg width="395" height="106" viewBox="0 0 395 106" fill="none" xmlns="http://www.w3.org/2000/svg">
<rect x="141.333" y="1.86877" width="102" height="102" rx="51" stroke="#EF4444" stroke-width="2" stroke-dasharray="8 4"/>
<g clip-path="url(#clip0_356_33342)">
<rect x="149.833" y="10.3688" width="95" height="95" rx="47.5" fill="#EF4444"/>
<path d="M211.333 37.8688H183.333C182.803 37.8688 182.294 37.6581 181.919 37.283C181.544 36.9079 181.333 36.3992 181.333 35.8688C181.333 35.3383 181.544 34.8296 181.919 34.4546C182.294 34.0795 182.803 33.8688 183.333 33.8688H211.333C211.863 33.8688 212.372 34.0795 212.747 34.4546C213.122 34.8296 213.333 35.3383 213.333 35.8688C213.333 36.3992 213.122 36.9079 212.747 37.283C212.372 37.6581 211.863 37.8688 211.333 37.8688Z" fill="white"/>
<path d="M215.333 43.8688H179.333C178.803 43.8688 178.294 43.6581 177.919 43.283C177.544 42.9079 177.333 42.3992 177.333 41.8688C177.333 41.3383 177.544 40.8296 177.919 40.4546C178.294 40.0795 178.803 39.8688 179.333 39.8688H215.333C215.863 39.8688 216.372 40.0795 216.747 40.4546C217.122 40.8296 217.333 41.3383 217.333 41.8688C217.333 42.3992 217.122 42.9079 216.747 43.283C216.372 43.6581 215.863 43.8688 215.333 43.8688Z" fill="white"/>
<path d="M217.724 81.8688H176.942C175.455 81.8671 174.029 81.2757 172.978 80.2242C171.926 79.1727 171.335 77.7471 171.333 76.26V51.4775C171.335 49.9905 171.926 48.5649 172.978 47.5134C174.029 46.4619 175.455 45.8704 176.942 45.8688H217.724C219.211 45.8704 220.637 46.4619 221.688 47.5134C222.74 48.5649 223.331 49.9905 223.333 51.4775V76.26C223.331 77.7471 222.74 79.1727 221.688 80.2242C220.637 81.2757 219.211 81.8671 217.724 81.8688V81.8688Z" fill="white"/>
<rect x="149.833" y="10.3688" width="95" height="95" rx="47.5" stroke="#EF4444"/>
</g>
<defs>
<clipPath id="clip0_356_33342">
<rect width="394.667" height="96" fill="white" transform="translate(0 9.86877)"/>
</clipPath>
</defs>
</svg>
