<svg width="395" height="106" viewBox="0 0 395 106" fill="none" xmlns="http://www.w3.org/2000/svg">
<g clip-path="url(#clip0_356_33365)">
<rect x="150.167" y="10.3688" width="95" height="95" rx="47.5" fill="#EAB308"/>
<path d="M211.667 37.8688H183.667C183.137 37.8688 182.628 37.6581 182.253 37.283C181.878 36.9079 181.667 36.3992 181.667 35.8688C181.667 35.3383 181.878 34.8296 182.253 34.4546C182.628 34.0795 183.137 33.8688 183.667 33.8688H211.667C212.197 33.8688 212.706 34.0795 213.081 34.4546C213.456 34.8296 213.667 35.3383 213.667 35.8688C213.667 36.3992 213.456 36.9079 213.081 37.283C212.706 37.6581 212.197 37.8688 211.667 37.8688Z" fill="white"/>
<path d="M215.667 43.8688H179.667C179.137 43.8688 178.628 43.6581 178.253 43.283C177.878 42.9079 177.667 42.3992 177.667 41.8688C177.667 41.3383 177.878 40.8296 178.253 40.4546C178.628 40.0795 179.137 39.8688 179.667 39.8688H215.667C216.197 39.8688 216.706 40.0795 217.081 40.4546C217.456 40.8296 217.667 41.3383 217.667 41.8688C217.667 42.3992 217.456 42.9079 217.081 43.283C216.706 43.6581 216.197 43.8688 215.667 43.8688Z" fill="white"/>
<path d="M218.058 81.8688H177.276C175.789 81.8671 174.363 81.2757 173.312 80.2242C172.26 79.1727 171.669 77.7471 171.667 76.26V51.4775C171.669 49.9905 172.26 48.5649 173.312 47.5134C174.363 46.4619 175.789 45.8704 177.276 45.8688H218.058C219.545 45.8704 220.971 46.4619 222.022 47.5134C223.074 48.5649 223.665 49.9905 223.667 51.4775V76.26C223.665 77.7471 223.074 79.1727 222.022 80.2242C220.971 81.2757 219.545 81.8671 218.058 81.8688V81.8688Z" fill="white"/>
<rect x="150.167" y="10.3688" width="95" height="95" rx="47.5" stroke="#EAB308"/>
</g>
<rect x="151" y="1.86877" width="102" height="102" rx="51" stroke="#EAB308" stroke-width="2" stroke-dasharray="8 4"/>
<defs>
<clipPath id="clip0_356_33365">
<rect width="394.667" height="138" fill="white" transform="translate(0.333984 9.86877)"/>
</clipPath>
</defs>
</svg>
